<svg xmlns="http://www.w3.org/2000/svg" width="580" height="400"><rect fill="#fff" fill-opacity="0.0" id="canvas_background" height="402" width="582" y="-1" x="-1"/><g display="none" overflow="visible" y="0" x="0" height="100" width="100" id="canvasGrid"><rect fill="url(#gridpattern)" stroke-width="0" y="0" x="0" height="100" width="100"/></g><defs><linearGradient y2="0" y1="79.864" x2="0" x1="60.182" id="svg_4"><stop stop-color="rgb(100,44,143)" offset="0"/><stop stop-color="rgb(161,72,150)" offset="50"/><stop stop-color="rgb(221,0,132)" offset="100"/></linearGradient></defs><g stroke="null" id="svg_8"><path stroke="null" id="svg_6" d="m466.904 352.708l-362.808 0c-3.576 0-6.479-2.898-6.479-6.485l0-285.304c0-3.587 2.902-6.485 6.479-6.485l362.808 0c3.576 0 6.479 2.898 6.479 6.485l0 285.304c0 3.587-2.902 6.485-6.479 6.485zm-6.479-285.304l-349.851 0 0 272.335 349.851 0 0-272.335zm-211.492 137.893c2.566-2.258 6.441-2.133 8.863 0.285l30.728 30.754 63.453-69.556c1.159-1.271 2.779-2.029 4.496-2.107 1.703-0.039 3.395 0.538 4.664 1.699l77.745 71.325c2.644 2.418 2.818 6.524 0.401 9.163 -2.415 2.639-6.517 2.82-9.154 0.402l-72.956-66.937 -59.482 65.193 31.143 31.17c2.534 2.535 2.534 6.632 0 9.168 -2.532 2.535-6.628 2.535-9.16 0l-66.744-66.793 -105.687 93.125c-1.231 1.083-2.76 1.614-4.277 1.614 -1.794 0-3.582-0.738-4.864-2.198 -2.366-2.692-2.107-6.789 0.582-9.156l110.248-97.152zm-47.656-7.315c-19.897 0-36.081-16.197-36.081-36.11 0-19.913 16.184-36.11 36.081-36.11 19.895 0 36.079 16.197 36.079 36.116 0 19.907-16.184 36.104-36.079 36.104zm0-59.252c-12.751 0-23.123 10.394-23.123 23.148 0 12.756 10.372 23.137 23.123 23.137 12.75 0 23.122-10.388 23.122-23.142 0-12.754-10.372-23.142-23.122-23.142zM466.904 352.708" fill="rgb(138, 138, 138)" fill-rule="evenodd"/><path stroke="null" id="svg_7" d="m466.904 352.708l-362.808 0c-3.576 0-6.479-2.898-6.479-6.485l0-285.304c0-3.587 2.902-6.485 6.479-6.485l362.808 0c3.576 0 6.479 2.898 6.479 6.485l0 285.304c0 3.587-2.902 6.485-6.479 6.485zm-6.479-285.304l-349.851 0 0 272.335 349.851 0 0-272.335zm-211.492 137.893c2.566-2.258 6.441-2.133 8.863 0.285l30.728 30.754 63.453-69.556c1.159-1.271 2.779-2.029 4.496-2.107 1.703-0.039 3.395 0.538 4.664 1.699l77.745 71.325c2.644 2.418 2.818 6.524 0.401 9.163 -2.415 2.639-6.517 2.82-9.154 0.402l-72.956-66.937 -59.482 65.193 31.143 31.17c2.534 2.535 2.534 6.632 0 9.168 -2.532 2.535-6.628 2.535-9.16 0l-66.744-66.793 -105.687 93.125c-1.231 1.083-2.76 1.614-4.277 1.614 -1.794 0-3.582-0.738-4.864-2.198 -2.366-2.692-2.107-6.789 0.582-9.156l110.248-97.152zm-47.656-7.315c-19.897 0-36.081-16.197-36.081-36.11 0-19.913 16.184-36.11 36.081-36.11 19.895 0 36.079 16.197 36.079 36.116 0 19.907-16.184 36.104-36.079 36.104zm0-59.252c-12.751 0-23.123 10.394-23.123 23.148 0 12.756 10.372 23.137 23.123 23.137 12.75 0 23.122-10.388 23.122-23.142 0-12.754-10.372-23.142-23.122-23.142z" fill="url(#svg_4)"/></g></svg>